<?xml version="1.0" encoding="UTF-8" standalone="yes"?><svg xmlns="http://www.w3.org/2000/svg" xmlns:xlink="http://www.w3.org/1999/xlink" height="249pt" style="width:190px;height:249px;" version="1.1" viewBox="0 0 190 249" width="190pt"><defs><filter height="300%" id="f1" width="300%" x="-1" y="-1"><feGaussianBlur result="blurOut" stdDeviation="2.0"/><feColorMatrix in="blurOut" result="blurOut2" type="matrix" values="0 0 0 0 0 0 0 0 0 0 0 0 0 0 0 0 0 0 .4 0"/><feOffset dx="4.0" dy="4.0" in="blurOut2" result="blurOut3"/><feBlend in="SourceGraphic" in2="blurOut3" mode="normal"/></filter></defs><g><rect fill="#FEFECE" filter="url(#f1)" height="124.7959" style="stroke: #A80036; stroke-width: 1.5;" width="175" x="6" y="116"/><ellipse cx="69.75" cy="132" fill="#ADD1B2" rx="11" ry="11" style="stroke: #A80036; stroke-width: 1.0;"/><path d="M73.5781,137.6563 Q71.7031,138.3125 69.8906,138.3125 Q67.2969,138.3125 65.7109,136.5313 Q64.125,134.75 64.125,131.8438 Q64.125,129.1563 65.5313,127.3906 Q66.3906,126.3125 67.5078,125.8594 Q68.625,125.4063 70.4063,125.4063 Q72.125,125.4063 73.5781,125.7656 L73.5781,127.75 Q71.7031,127.0469 70.4531,127.0469 Q68.7656,127.0469 67.7734,128.3672 Q66.7813,129.6875 66.7813,131.9219 Q66.7813,133.9688 67.8203,135.2656 Q68.8594,136.5625 70.5,136.5625 Q71.8906,136.5625 73.5781,135.7813 L73.5781,137.6563 Z "/><text fill="#000000" font-family="sans-serif" font-size="12" lengthAdjust="spacingAndGlyphs" textLength="39" x="90.25" y="136.4209">DotFile</text><line style="stroke: #A80036; stroke-width: 1.5;" x1="7" x2="180" y1="148" y2="148"/><rect fill="none" height="6" style="stroke: #C82930; stroke-width: 1.0;" width="6" x="14" y="156.8997"/><text fill="#000000" font-family="sans-serif" font-size="11" lengthAdjust="spacingAndGlyphs" textLength="40" x="26" y="162.4521">file: File</text><rect fill="none" height="6" style="stroke: #C82930; stroke-width: 1.0;" width="6" x="14" y="169.699"/><text fill="#000000" font-family="sans-serif" font-size="11" lengthAdjust="spacingAndGlyphs" textLength="125" x="26" y="175.2515">dos: DataOutputStream</text><line style="stroke: #A80036; stroke-width: 1.5;" x1="7" x2="180" y1="181.5986" y2="181.5986"/><ellipse cx="17" cy="193.4983" fill="#84BE84" rx="3" ry="3" style="stroke: #038048; stroke-width: 1.0;"/><text fill="#000000" font-family="sans-serif" font-size="11" lengthAdjust="spacingAndGlyphs" textLength="146" x="26" y="196.0508">DotFile(final String filepath)</text><ellipse cx="17" cy="206.2976" fill="#84BE84" rx="3" ry="3" style="stroke: #038048; stroke-width: 1.0;"/><text fill="#000000" font-family="sans-serif" font-size="11" lengthAdjust="spacingAndGlyphs" textLength="111" x="26" y="208.8501">DotFile( final File file)</text><ellipse cx="17" cy="219.0969" fill="#84BE84" rx="3" ry="3" style="stroke: #038048; stroke-width: 1.0;"/><text fill="#000000" font-family="sans-serif" font-size="11" lengthAdjust="spacingAndGlyphs" textLength="68" x="26" y="221.6494">close() : void</text><ellipse cx="17" cy="231.8962" fill="#84BE84" rx="3" ry="3" style="stroke: #038048; stroke-width: 1.0;"/><text fill="#000000" font-family="sans-serif" font-size="11" lengthAdjust="spacingAndGlyphs" textLength="149" x="26" y="234.4487">addln( final String str ): void</text><rect fill="#FEFECE" filter="url(#f1)" height="48" style="stroke: #A80036; stroke-width: 1.5;" width="81" x="53" y="8"/><ellipse cx="68" cy="24" fill="#ADD1B2" rx="11" ry="11" style="stroke: #A80036; stroke-width: 1.0;"/><path d="M71.8281,29.6563 Q69.9531,30.3125 68.1406,30.3125 Q65.5469,30.3125 63.9609,28.5313 Q62.375,26.75 62.375,23.8438 Q62.375,21.1563 63.7813,19.3906 Q64.6406,18.3125 65.7578,17.8594 Q66.875,17.4063 68.6563,17.4063 Q70.375,17.4063 71.8281,17.7656 L71.8281,19.75 Q69.9531,19.0469 68.7031,19.0469 Q67.0156,19.0469 66.0234,20.3672 Q65.0313,21.6875 65.0313,23.9219 Q65.0313,25.9688 66.0703,27.2656 Q67.1094,28.5625 68.75,28.5625 Q70.1406,28.5625 71.8281,27.7813 L71.8281,29.6563 Z "/><text fill="#000000" font-family="sans-serif" font-size="12" lengthAdjust="spacingAndGlyphs" textLength="49" x="82" y="28.4209">WrapFile</text><line style="stroke: #A80036; stroke-width: 1.5;" x1="54" x2="133" y1="40" y2="40"/><line style="stroke: #A80036; stroke-width: 1.5;" x1="54" x2="133" y1="48" y2="48"/><path d="M93.5,76.667 C93.5,89.049 93.5,102.766 93.5,115.991 " fill="none" style="stroke: #A80036; stroke-width: 1.0;"/><polygon fill="none" points="86.5001,76.216,93.5,56.216,100.5001,76.216,86.5001,76.216" style="stroke: #A80036; stroke-width: 1.0;"/></g></svg>