<?xml version="1.0" encoding="UTF-8" standalone="yes"?><svg xmlns="http://www.w3.org/2000/svg" xmlns:xlink="http://www.w3.org/1999/xlink" height="90pt" style="width:144px;height:90px;" version="1.1" viewBox="0 0 144 90" width="144pt"><defs><filter height="300%" id="f1" width="300%" x="-1" y="-1"><feGaussianBlur result="blurOut" stdDeviation="2.0"/><feColorMatrix in="blurOut" result="blurOut2" type="matrix" values="0 0 0 0 0 0 0 0 0 0 0 0 0 0 0 0 0 0 .4 0"/><feOffset dx="4.0" dy="4.0" in="blurOut2" result="blurOut3"/><feBlend in="SourceGraphic" in2="blurOut3" mode="normal"/></filter></defs><g><rect fill="#FEFECE" filter="url(#f1)" height="73.5986" style="stroke: #A80036; stroke-width: 1.5;" width="129" x="6" y="8"/><ellipse cx="33.15" cy="24" fill="#ADD1B2" rx="11" ry="11" style="stroke: #A80036; stroke-width: 1.0;"/><path d="M36.9781,29.6563 Q35.1031,30.3125 33.2906,30.3125 Q30.6969,30.3125 29.1109,28.5313 Q27.525,26.75 27.525,23.8438 Q27.525,21.1563 28.9313,19.3906 Q29.7906,18.3125 30.9078,17.8594 Q32.025,17.4063 33.8063,17.4063 Q35.525,17.4063 36.9781,17.7656 L36.9781,19.75 Q35.1031,19.0469 33.8531,19.0469 Q32.1656,19.0469 31.1734,20.3672 Q30.1813,21.6875 30.1813,23.9219 Q30.1813,25.9688 31.2203,27.2656 Q32.2594,28.5625 33.9,28.5625 Q35.2906,28.5625 36.9781,27.7813 L36.9781,29.6563 Z "/><text fill="#000000" font-family="sans-serif" font-size="12" lengthAdjust="spacingAndGlyphs" textLength="70" x="49.85" y="28.4209">GraphWriter</text><line style="stroke: #A80036; stroke-width: 1.5;" x1="7" x2="134" y1="40" y2="40"/><rect fill="none" height="6" style="stroke: #C82930; stroke-width: 1.0;" width="6" x="14" y="48.8997"/><text fill="#000000" font-family="sans-serif" font-size="11" lengthAdjust="spacingAndGlyphs" textLength="99" x="26" y="54.4521">outputDir :   String</text><rect fill="none" height="6" style="stroke: #C82930; stroke-width: 1.0;" width="6" x="14" y="61.699"/><text fill="#000000" font-family="sans-serif" font-size="11" lengthAdjust="spacingAndGlyphs" textLength="103" x="26" y="67.2515">htmlFile  :   HtmlFile</text><line style="stroke: #A80036; stroke-width: 1.5;" x1="7" x2="134" y1="73.5986" y2="73.5986"/></g></svg>