<?xml version="1.0" encoding="UTF-8" standalone="yes"?><svg xmlns="http://www.w3.org/2000/svg" xmlns:xlink="http://www.w3.org/1999/xlink" height="173pt" style="width:142px;height:173px;" version="1.1" viewBox="0 0 142 173" width="142pt"><defs><filter height="300%" id="f1" width="300%" x="-1" y="-1"><feGaussianBlur result="blurOut" stdDeviation="2.0"/><feColorMatrix in="blurOut" result="blurOut2" type="matrix" values="0 0 0 0 0 0 0 0 0 0 0 0 0 0 0 0 0 0 .4 0"/><feOffset dx="4.0" dy="4.0" in="blurOut2" result="blurOut3"/><feBlend in="SourceGraphic" in2="blurOut3" mode="normal"/></filter></defs><g><rect fill="#FEFECE" filter="url(#f1)" height="48" style="stroke: #A80036; stroke-width: 1.5;" width="127" x="6" y="116"/><ellipse cx="21" cy="132" fill="#ADD1B2" rx="11" ry="11" style="stroke: #A80036; stroke-width: 1.0;"/><path d="M24.8281,137.6563 Q22.9531,138.3125 21.1406,138.3125 Q18.5469,138.3125 16.9609,136.5313 Q15.375,134.75 15.375,131.8438 Q15.375,129.1563 16.7813,127.3906 Q17.6406,126.3125 18.7578,125.8594 Q19.875,125.4063 21.6563,125.4063 Q23.375,125.4063 24.8281,125.7656 L24.8281,127.75 Q22.9531,127.0469 21.7031,127.0469 Q20.0156,127.0469 19.0234,128.3672 Q18.0313,129.6875 18.0313,131.9219 Q18.0313,133.9688 19.0703,135.2656 Q20.1094,136.5625 21.75,136.5625 Q23.1406,136.5625 24.8281,135.7813 L24.8281,137.6563 Z "/><text fill="#000000" font-family="sans-serif" font-size="12" lengthAdjust="spacingAndGlyphs" textLength="95" x="35" y="136.4209">BidirectionalMap</text><line style="stroke: #A80036; stroke-width: 1.5;" x1="7" x2="132" y1="148" y2="148"/><line style="stroke: #A80036; stroke-width: 1.5;" x1="7" x2="132" y1="156" y2="156"/><rect fill="#FEFECE" filter="url(#f1)" height="48" style="stroke: #A80036; stroke-width: 1.5;" width="67" x="36" y="8"/><ellipse cx="51" cy="24" fill="#B4A7E5" rx="11" ry="11" style="stroke: #A80036; stroke-width: 1.0;"/><path d="M47.0156,30 L47.0156,28.3594 L49.8906,28.3594 L49.8906,19.3438 L47.0156,19.3438 L47.0156,17.7188 L55.2188,17.7188 L55.2188,19.3438 L52.3438,19.3438 L52.3438,28.3594 L55.2188,28.3594 L55.2188,30 L47.0156,30 Z "/><text fill="#000000" font-family="sans-serif" font-size="12" font-style="italic" lengthAdjust="spacingAndGlyphs" textLength="35" x="65" y="28.4209">BiMap</text><line style="stroke: #A80036; stroke-width: 1.5;" x1="37" x2="102" y1="40" y2="40"/><line style="stroke: #A80036; stroke-width: 1.5;" x1="37" x2="102" y1="48" y2="48"/><path d="M69.5,76.0236 C69.5,89.5792 69.5,104.0381 69.5,115.6784 " fill="none" style="stroke: #A80036; stroke-width: 1.0; stroke-dasharray: 7.0,7.0;"/><polygon fill="none" points="62.5001,76.0005,69.5,56,76.5001,76.0004,62.5001,76.0005" style="stroke: #A80036; stroke-width: 1.0;"/></g></svg>