<?xml version="1.0" encoding="UTF-8" standalone="yes"?><svg xmlns="http://www.w3.org/2000/svg" xmlns:xlink="http://www.w3.org/1999/xlink" height="216pt" style="width:310px;height:216px;" version="1.1" viewBox="0 0 310 216" width="310pt"><defs><filter height="300%" id="f1" width="300%" x="-1" y="-1"><feGaussianBlur result="blurOut" stdDeviation="2.0"/><feColorMatrix in="blurOut" result="blurOut2" type="matrix" values="0 0 0 0 0 0 0 0 0 0 0 0 0 0 0 0 0 0 .4 0"/><feOffset dx="4.0" dy="4.0" in="blurOut2" result="blurOut3"/><feBlend in="SourceGraphic" in2="blurOut3" mode="normal"/></filter></defs><g><rect fill="#FEFECE" filter="url(#f1)" height="91.1973" style="stroke: #A80036; stroke-width: 1.5;" width="295" x="6" y="116"/><ellipse cx="131.75" cy="132" fill="#B4A7E5" rx="11" ry="11" style="stroke: #A80036; stroke-width: 1.0;"/><path d="M127.7656,138 L127.7656,136.3594 L130.6406,136.3594 L130.6406,127.3438 L127.7656,127.3438 L127.7656,125.7188 L135.9688,125.7188 L135.9688,127.3438 L133.0938,127.3438 L133.0938,136.3594 L135.9688,136.3594 L135.9688,138 L127.7656,138 Z "/><text fill="#000000" font-family="sans-serif" font-size="12" font-style="italic" lengthAdjust="spacingAndGlyphs" textLength="35" x="152.25" y="136.4209">BiMap</text><line style="stroke: #A80036; stroke-width: 1.5;" x1="7" x2="300" y1="148" y2="148"/><ellipse cx="17" cy="159.8997" fill="#84BE84" rx="3" ry="3" style="stroke: #038048; stroke-width: 1.0;"/><text fill="#000000" font-family="sans-serif" font-size="11" lengthAdjust="spacingAndGlyphs" textLength="183" x="26" y="162.4521">put( K key, V value)                       : V</text><ellipse cx="17" cy="172.699" fill="#84BE84" rx="3" ry="3" style="stroke: #038048; stroke-width: 1.0;"/><text fill="#000000" font-family="sans-serif" font-size="11" lengthAdjust="spacingAndGlyphs" textLength="269" x="26" y="175.2515">putAll(Map&lt;? extends K, ? extends V&gt; map)  : void</text><ellipse cx="17" cy="185.4983" fill="#84BE84" rx="3" ry="3" style="stroke: #038048; stroke-width: 1.0;"/><text fill="#000000" font-family="sans-serif" font-size="11" lengthAdjust="spacingAndGlyphs" textLength="194" x="26" y="188.0508">values()                                   : Set&lt;V&gt;</text><ellipse cx="17" cy="198.2976" fill="#84BE84" rx="3" ry="3" style="stroke: #038048; stroke-width: 1.0;"/><text fill="#000000" font-family="sans-serif" font-size="11" lengthAdjust="spacingAndGlyphs" textLength="224" x="26" y="200.8501">inverse()                                  : BiMap&lt;V, K&gt;</text><rect fill="#FEFECE" filter="url(#f1)" height="48" style="stroke: #A80036; stroke-width: 1.5;" width="57" x="125" y="8"/><ellipse cx="140" cy="24" fill="#B4A7E5" rx="11" ry="11" style="stroke: #A80036; stroke-width: 1.0;"/><path d="M136.0156,30 L136.0156,28.3594 L138.8906,28.3594 L138.8906,19.3438 L136.0156,19.3438 L136.0156,17.7188 L144.2188,17.7188 L144.2188,19.3438 L141.3438,19.3438 L141.3438,28.3594 L144.2188,28.3594 L144.2188,30 L136.0156,30 Z "/><text fill="#000000" font-family="sans-serif" font-size="12" font-style="italic" lengthAdjust="spacingAndGlyphs" textLength="25" x="154" y="28.4209">Map</text><line style="stroke: #A80036; stroke-width: 1.5;" x1="126" x2="181" y1="40" y2="40"/><line style="stroke: #A80036; stroke-width: 1.5;" x1="126" x2="181" y1="48" y2="48"/><path d="M153.5,76.543 C153.5,89.247 153.5,103.145 153.5,115.9123 " fill="none" style="stroke: #A80036; stroke-width: 1.0;"/><polygon fill="none" points="146.5,76.089,153.5,56.089,160.5,76.089,146.5,76.089" style="stroke: #A80036; stroke-width: 1.0;"/></g></svg>