<?xml version="1.0" encoding="UTF-8" standalone="yes"?><svg xmlns="http://www.w3.org/2000/svg" xmlns:xlink="http://www.w3.org/1999/xlink" height="90pt" style="width:410px;height:90px;" version="1.1" viewBox="0 0 410 90" width="410pt"><defs><filter height="300%" id="f1" width="300%" x="-1" y="-1"><feGaussianBlur result="blurOut" stdDeviation="2.0"/><feColorMatrix in="blurOut" result="blurOut2" type="matrix" values="0 0 0 0 0 0 0 0 0 0 0 0 0 0 0 0 0 0 .4 0"/><feOffset dx="4.0" dy="4.0" in="blurOut2" result="blurOut3"/><feBlend in="SourceGraphic" in2="blurOut3" mode="normal"/></filter></defs><g><rect fill="#FEFECE" filter="url(#f1)" height="73.5986" style="stroke: #A80036; stroke-width: 1.5;" width="395" x="6" y="8"/><ellipse cx="169.75" cy="24" fill="#ADD1B2" rx="11" ry="11" style="stroke: #A80036; stroke-width: 1.0;"/><path d="M173.5781,29.6563 Q171.7031,30.3125 169.8906,30.3125 Q167.2969,30.3125 165.7109,28.5313 Q164.125,26.75 164.125,23.8438 Q164.125,21.1563 165.5313,19.3906 Q166.3906,18.3125 167.5078,17.8594 Q168.625,17.4063 170.4063,17.4063 Q172.125,17.4063 173.5781,17.7656 L173.5781,19.75 Q171.7031,19.0469 170.4531,19.0469 Q168.7656,19.0469 167.7734,20.3672 Q166.7813,21.6875 166.7813,23.9219 Q166.7813,25.9688 167.8203,27.2656 Q168.8594,28.5625 170.5,28.5625 Q171.8906,28.5625 173.5781,27.7813 L173.5781,29.6563 Z "/><text fill="#000000" font-family="sans-serif" font-size="12" lengthAdjust="spacingAndGlyphs" textLength="59" x="190.25" y="28.4209">Command</text><line style="stroke: #A80036; stroke-width: 1.5;" x1="7" x2="400" y1="40" y2="40"/><line style="stroke: #A80036; stroke-width: 1.5;" x1="7" x2="400" y1="48" y2="48"/><text fill="#000000" font-family="sans-serif" font-size="11" lengthAdjust="spacingAndGlyphs" text-decoration="underline" textLength="383" x="12" y="62.4521">run( final String cmd, final List&lt;String&gt; params): List&lt;BufferedReader&gt;</text><text fill="#000000" font-family="sans-serif" font-size="11" lengthAdjust="spacingAndGlyphs" text-decoration="underline" textLength="309" x="12" y="75.2515">run( final List&lt;String&gt; command ): List&lt;BufferedReader&gt;</text></g></svg>