<?xml version="1.0" encoding="UTF-8" standalone="yes"?><svg xmlns="http://www.w3.org/2000/svg" xmlns:xlink="http://www.w3.org/1999/xlink" height="77pt" style="width:251px;height:77px;" version="1.1" viewBox="0 0 251 77" width="251pt"><defs><filter height="300%" id="f1" width="300%" x="-1" y="-1"><feGaussianBlur result="blurOut" stdDeviation="2.0"/><feColorMatrix in="blurOut" result="blurOut2" type="matrix" values="0 0 0 0 0 0 0 0 0 0 0 0 0 0 0 0 0 0 .4 0"/><feOffset dx="4.0" dy="4.0" in="blurOut2" result="blurOut3"/><feBlend in="SourceGraphic" in2="blurOut3" mode="normal"/></filter></defs><g><rect fill="#FEFECE" filter="url(#f1)" height="60.7993" style="stroke: #A80036; stroke-width: 1.5;" width="236" x="6" y="8"/><ellipse cx="68.25" cy="24" fill="#ADD1B2" rx="11" ry="11" style="stroke: #A80036; stroke-width: 1.0;"/><path d="M72.0781,29.6563 Q70.2031,30.3125 68.3906,30.3125 Q65.7969,30.3125 64.2109,28.5313 Q62.625,26.75 62.625,23.8438 Q62.625,21.1563 64.0313,19.3906 Q64.8906,18.3125 66.0078,17.8594 Q67.125,17.4063 68.9063,17.4063 Q70.625,17.4063 72.0781,17.7656 L72.0781,19.75 Q70.2031,19.0469 68.9531,19.0469 Q67.2656,19.0469 66.2734,20.3672 Q65.2813,21.6875 65.2813,23.9219 Q65.2813,25.9688 66.3203,27.2656 Q67.3594,28.5625 69,28.5625 Q70.3906,28.5625 72.0781,27.7813 L72.0781,29.6563 Z "/><text fill="#000000" font-family="sans-serif" font-size="12" lengthAdjust="spacingAndGlyphs" textLength="103" x="88.75" y="28.4209">ResourceExporter</text><line style="stroke: #A80036; stroke-width: 1.5;" x1="7" x2="241" y1="40" y2="40"/><line style="stroke: #A80036; stroke-width: 1.5;" x1="7" x2="241" y1="48" y2="48"/><text fill="#000000" font-family="sans-serif" font-size="11" lengthAdjust="spacingAndGlyphs" text-decoration="underline" textLength="224" x="12" y="62.4521">export(final String resourceName) : String</text></g></svg>